<svg width="81" height="97" viewBox="0 0 81 97" fill="none" xmlns="http://www.w3.org/2000/svg">
<path d="M7.30117 0.875108C7.25763 0.741117 7.13277 0.650398 6.99188 0.650398C6.851 0.650398 6.72613 0.741117 6.6826 0.875108L5.33186 5.03224H0.960794C0.819908 5.03224 0.695044 5.12296 0.651508 5.25695C0.607971 5.39094 0.655665 5.53773 0.769645 5.62054L4.30591 8.18979L2.95518 12.3469C2.91164 12.4809 2.95934 12.6277 3.07332 12.7105C3.1873 12.7933 3.34164 12.7933 3.45562 12.7105L6.99188 10.1413L10.5282 12.7105C10.6421 12.7933 10.7965 12.7933 10.9105 12.7105C11.0244 12.6277 11.0721 12.4809 11.0286 12.3469L9.67785 8.18979L13.2141 5.62054C13.3281 5.53773 13.3758 5.39094 13.3323 5.25695C13.2887 5.12296 13.1639 5.03224 13.023 5.03224H8.65191L7.30117 0.875108Z" fill="#00FFB2" stroke="#00FFB2" stroke-width="0.650406" stroke-linejoin="round"/>
<path d="M7.30117 17.4605C7.25763 17.3265 7.13277 17.2358 6.99188 17.2358C6.851 17.2358 6.72613 17.3265 6.6826 17.4605L5.33186 21.6176H0.960794C0.819908 21.6176 0.695044 21.7083 0.651508 21.8423C0.607971 21.9763 0.655665 22.1231 0.769645 22.2059L4.30591 24.7752L2.95518 28.9323C2.91164 29.0663 2.95934 29.2131 3.07332 29.2959C3.1873 29.3787 3.34164 29.3787 3.45562 29.2959L6.99188 26.7266L10.5282 29.2959C10.6421 29.3787 10.7965 29.3787 10.9105 29.2959C11.0244 29.2131 11.0721 29.0663 11.0286 28.9323L9.67785 24.7752L13.2141 22.2059C13.3281 22.1231 13.3758 21.9763 13.3323 21.8423C13.2887 21.7083 13.1639 21.6176 13.023 21.6176H8.65191L7.30117 17.4605Z" fill="#00FFB2" stroke="#00FFB2" stroke-width="0.650406" stroke-linejoin="round"/>
<path d="M7.30117 34.0458C7.25763 33.9118 7.13277 33.8211 6.99188 33.8211C6.851 33.8211 6.72613 33.9118 6.6826 34.0458L5.33186 38.203H0.960794C0.819908 38.203 0.695044 38.2937 0.651508 38.4277C0.607971 38.5617 0.655665 38.7085 0.769645 38.7913L4.30591 41.3605L2.95518 45.5177C2.91164 45.6516 2.95934 45.7984 3.07332 45.8812C3.1873 45.9641 3.34164 45.9641 3.45562 45.8812L6.99188 43.312L10.5282 45.8812C10.6421 45.9641 10.7965 45.9641 10.9105 45.8812C11.0244 45.7984 11.0721 45.6516 11.0286 45.5177L9.67785 41.3605L13.2141 38.7913C13.3281 38.7085 13.3758 38.5617 13.3323 38.4277C13.2887 38.2937 13.1639 38.203 13.023 38.203H8.65191L7.30117 34.0458Z" fill="#00FFB2" stroke="#00FFB2" stroke-width="0.650406" stroke-linejoin="round"/>
<path d="M7.30117 50.6312C7.25763 50.4972 7.13277 50.4065 6.99188 50.4065C6.851 50.4065 6.72613 50.4972 6.6826 50.6312L5.33186 54.7883H0.960794C0.819908 54.7883 0.695044 54.8791 0.651508 55.0131C0.607971 55.147 0.655665 55.2938 0.769645 55.3766L4.30591 57.9459L2.95518 62.103C2.91164 62.237 2.95934 62.3838 3.07332 62.4666C3.1873 62.5494 3.34164 62.5494 3.45562 62.4666L6.99188 59.8974L10.5282 62.4666C10.6421 62.5494 10.7965 62.5494 10.9105 62.4666C11.0244 62.3838 11.0721 62.237 11.0286 62.103L9.67785 57.9459L13.2141 55.3766C13.3281 55.2938 13.3758 55.147 13.3323 55.0131C13.2887 54.8791 13.1639 54.7883 13.023 54.7883H8.65191L7.30117 50.6312Z" fill="#00FFB2" stroke="#00FFB2" stroke-width="0.650406" stroke-linejoin="round"/>
<path d="M7.30117 67.2166C7.25763 67.0826 7.13277 66.9919 6.99188 66.9919C6.851 66.9919 6.72613 67.0826 6.6826 67.2166L5.33186 71.3737H0.960794C0.819908 71.3737 0.695044 71.4644 0.651508 71.5984C0.607971 71.7324 0.655665 71.8792 0.769645 71.962L4.30591 74.5313L2.95518 78.6884C2.91164 78.8224 2.95934 78.9692 3.07332 79.052C3.1873 79.1348 3.34164 79.1348 3.45562 79.052L6.99188 76.4827L10.5282 79.052C10.6421 79.1348 10.7965 79.1348 10.9105 79.052C11.0244 78.9692 11.0721 78.8224 11.0286 78.6884L9.67785 74.5313L13.2141 71.962C13.3281 71.8792 13.3758 71.7324 13.3323 71.5984C13.2887 71.4644 13.1639 71.3737 13.023 71.3737H8.65191L7.30117 67.2166Z" fill="#00FFB2" stroke="#00FFB2" stroke-width="0.650406" stroke-linejoin="round"/>
<path d="M7.30117 83.8019C7.25763 83.668 7.13277 83.5772 6.99188 83.5772C6.851 83.5772 6.72613 83.668 6.6826 83.8019L5.33186 87.9591H0.960794C0.819908 87.9591 0.695044 88.0498 0.651508 88.1838C0.607971 88.3178 0.655665 88.4646 0.769645 88.5474L4.30591 91.1166L2.95518 95.2738C2.91164 95.4077 2.95934 95.5545 3.07332 95.6373C3.1873 95.7202 3.34164 95.7202 3.45562 95.6373L6.99188 93.0681L10.5282 95.6373C10.6421 95.7202 10.7965 95.7202 10.9105 95.6373C11.0244 95.5545 11.0721 95.4077 11.0286 95.2738L9.67785 91.1166L13.2141 88.5474C13.3281 88.4646 13.3758 88.3178 13.3323 88.1838C13.2887 88.0498 13.1639 87.9591 13.023 87.9591H8.65191L7.30117 83.8019Z" fill="black" stroke="#00FFB2" stroke-width="0.650406" stroke-linejoin="round"/>
<path d="M40.4719 0.875108C40.4283 0.741117 40.3035 0.650398 40.1626 0.650398C40.0217 0.650398 39.8968 0.741117 39.8533 0.875108L38.5026 5.03224H34.1315C33.9906 5.03224 33.8658 5.12296 33.8222 5.25695C33.7787 5.39094 33.8264 5.53773 33.9404 5.62054L37.4766 8.18979L36.1259 12.3469C36.0824 12.4809 36.1301 12.6277 36.244 12.7105C36.358 12.7933 36.5124 12.7933 36.6263 12.7105L40.1626 10.1413L43.6989 12.7105C43.8128 12.7933 43.9672 12.7933 44.0812 12.7105C44.1951 12.6277 44.2428 12.4809 44.1993 12.3469L42.8486 8.18979L46.3848 5.62054C46.4988 5.53773 46.5465 5.39094 46.503 5.25695C46.4594 5.12296 46.3346 5.03224 46.1937 5.03224H41.8226L40.4719 0.875108Z" fill="#00FFB2" stroke="#00FFB2" stroke-width="0.650406" stroke-linejoin="round"/>
<path d="M40.4719 17.4605C40.4283 17.3265 40.3035 17.2358 40.1626 17.2358C40.0217 17.2358 39.8968 17.3265 39.8533 17.4605L38.5026 21.6176H34.1315C33.9906 21.6176 33.8658 21.7083 33.8222 21.8423C33.7787 21.9763 33.8264 22.1231 33.9404 22.2059L37.4766 24.7752L36.1259 28.9323C36.0824 29.0663 36.1301 29.2131 36.244 29.2959C36.358 29.3787 36.5124 29.3787 36.6263 29.2959L40.1626 26.7266L43.6989 29.2959C43.8128 29.3787 43.9672 29.3787 44.0812 29.2959C44.1951 29.2131 44.2428 29.0663 44.1993 28.9323L42.8486 24.7752L46.3848 22.2059C46.4988 22.1231 46.5465 21.9763 46.503 21.8423C46.4594 21.7083 46.3346 21.6176 46.1937 21.6176H41.8226L40.4719 17.4605Z" fill="#00FFB2" stroke="#00FFB2" stroke-width="0.650406" stroke-linejoin="round"/>
<path d="M40.4719 34.0458C40.4283 33.9118 40.3035 33.8211 40.1626 33.8211C40.0217 33.8211 39.8968 33.9118 39.8533 34.0458L38.5026 38.203H34.1315C33.9906 38.203 33.8658 38.2937 33.8222 38.4277C33.7787 38.5617 33.8264 38.7085 33.9404 38.7913L37.4766 41.3605L36.1259 45.5177C36.0824 45.6516 36.1301 45.7984 36.244 45.8812C36.358 45.9641 36.5124 45.9641 36.6263 45.8812L40.1626 43.312L43.6989 45.8812C43.8128 45.9641 43.9672 45.9641 44.0812 45.8812C44.1951 45.7984 44.2428 45.6516 44.1993 45.5177L42.8486 41.3605L46.3848 38.7913C46.4988 38.7085 46.5465 38.5617 46.503 38.4277C46.4594 38.2937 46.3346 38.203 46.1937 38.203H41.8226L40.4719 34.0458Z" fill="#00FFB2" stroke="#00FFB2" stroke-width="0.650406" stroke-linejoin="round"/>
<path d="M40.4719 50.6312C40.4283 50.4972 40.3035 50.4065 40.1626 50.4065C40.0217 50.4065 39.8968 50.4972 39.8533 50.6312L38.5026 54.7883H34.1315C33.9906 54.7883 33.8658 54.8791 33.8222 55.0131C33.7787 55.147 33.8264 55.2938 33.9404 55.3766L37.4766 57.9459L36.1259 62.103C36.0824 62.237 36.1301 62.3838 36.244 62.4666C36.358 62.5494 36.5124 62.5494 36.6263 62.4666L40.1626 59.8974L43.6989 62.4666C43.8128 62.5494 43.9672 62.5494 44.0812 62.4666C44.1951 62.3838 44.2428 62.237 44.1993 62.103L42.8486 57.9459L46.3848 55.3766C46.4988 55.2938 46.5465 55.147 46.503 55.0131C46.4594 54.8791 46.3346 54.7883 46.1937 54.7883H41.8226L40.4719 50.6312Z" fill="black" stroke="#00FFB2" stroke-width="0.650406" stroke-linejoin="round"/>
<path d="M40.4719 67.2166C40.4283 67.0826 40.3035 66.9919 40.1626 66.9919C40.0217 66.9919 39.8968 67.0826 39.8533 67.2166L38.5026 71.3737H34.1315C33.9906 71.3737 33.8658 71.4644 33.8222 71.5984C33.7787 71.7324 33.8264 71.8792 33.9404 71.962L37.4766 74.5313L36.1259 78.6884C36.0824 78.8224 36.1301 78.9692 36.244 79.052C36.358 79.1348 36.5124 79.1348 36.6263 79.052L40.1626 76.4827L43.6989 79.052C43.8128 79.1348 43.9672 79.1348 44.0812 79.052C44.1951 78.9692 44.2428 78.8224 44.1993 78.6884L42.8486 74.5313L46.3848 71.962C46.4988 71.8792 46.5465 71.7324 46.503 71.5984C46.4594 71.4644 46.3346 71.3737 46.1937 71.3737H41.8226L40.4719 67.2166Z" fill="black" stroke="#00FFB2" stroke-width="0.650406" stroke-linejoin="round"/>
<path d="M40.4719 83.8019C40.4283 83.668 40.3035 83.5772 40.1626 83.5772C40.0217 83.5772 39.8968 83.668 39.8533 83.8019L38.5026 87.9591H34.1315C33.9906 87.9591 33.8658 88.0498 33.8222 88.1838C33.7787 88.3178 33.8264 88.4646 33.9404 88.5474L37.4766 91.1166L36.1259 95.2738C36.0824 95.4077 36.1301 95.5545 36.244 95.6373C36.358 95.7202 36.5124 95.7202 36.6263 95.6373L40.1626 93.0681L43.6989 95.6373C43.8128 95.7202 43.9672 95.7202 44.0812 95.6373C44.1951 95.5545 44.2428 95.4077 44.1993 95.2738L42.8486 91.1166L46.3848 88.5474C46.4988 88.4646 46.5465 88.3178 46.503 88.1838C46.4594 88.0498 46.3346 87.9591 46.1937 87.9591H41.8226L40.4719 83.8019Z" fill="black" stroke="#00FFB2" stroke-width="0.650406" stroke-linejoin="round"/>
<path d="M23.8865 0.875108C23.843 0.741117 23.7181 0.650398 23.5772 0.650398C23.4364 0.650398 23.3115 0.741117 23.268 0.875108L21.9172 5.03224H17.5462C17.4053 5.03224 17.2804 5.12296 17.2369 5.25695C17.1933 5.39094 17.241 5.53773 17.355 5.62054L20.8913 8.18979L19.5405 12.3469C19.497 12.4809 19.5447 12.6277 19.6587 12.7105C19.7727 12.7933 19.927 12.7933 20.041 12.7105L23.5772 10.1413L27.1135 12.7105C27.2275 12.7933 27.3818 12.7933 27.4958 12.7105C27.6098 12.6277 27.6575 12.4809 27.6139 12.3469L26.2632 8.18979L29.7995 5.62054C29.9135 5.53773 29.9612 5.39094 29.9176 5.25695C29.8741 5.12296 29.7492 5.03224 29.6083 5.03224H25.2373L23.8865 0.875108Z" fill="#00FFB2" stroke="#00FFB2" stroke-width="0.650406" stroke-linejoin="round"/>
<path d="M23.8865 17.4605C23.843 17.3265 23.7181 17.2358 23.5772 17.2358C23.4364 17.2358 23.3115 17.3265 23.268 17.4605L21.9172 21.6176H17.5462C17.4053 21.6176 17.2804 21.7083 17.2369 21.8423C17.1933 21.9763 17.241 22.1231 17.355 22.2059L20.8913 24.7752L19.5405 28.9323C19.497 29.0663 19.5447 29.2131 19.6587 29.2959C19.7727 29.3787 19.927 29.3787 20.041 29.2959L23.5772 26.7266L27.1135 29.2959C27.2275 29.3787 27.3818 29.3787 27.4958 29.2959C27.6098 29.2131 27.6575 29.0663 27.6139 28.9323L26.2632 24.7752L29.7995 22.2059C29.9135 22.1231 29.9612 21.9763 29.9176 21.8423C29.8741 21.7083 29.7492 21.6176 29.6083 21.6176H25.2373L23.8865 17.4605Z" fill="#00FFB2" stroke="#00FFB2" stroke-width="0.650406" stroke-linejoin="round"/>
<path d="M23.8865 34.0458C23.843 33.9118 23.7181 33.8211 23.5772 33.8211C23.4364 33.8211 23.3115 33.9118 23.268 34.0458L21.9172 38.203H17.5462C17.4053 38.203 17.2804 38.2937 17.2369 38.4277C17.1933 38.5617 17.241 38.7085 17.355 38.7913L20.8913 41.3605L19.5405 45.5177C19.497 45.6516 19.5447 45.7984 19.6587 45.8812C19.7727 45.9641 19.927 45.9641 20.041 45.8812L23.5772 43.312L27.1135 45.8812C27.2275 45.9641 27.3818 45.9641 27.4958 45.8812C27.6098 45.7984 27.6575 45.6516 27.6139 45.5177L26.2632 41.3605L29.7995 38.7913C29.9135 38.7085 29.9612 38.5617 29.9176 38.4277C29.8741 38.2937 29.7492 38.203 29.6083 38.203H25.2373L23.8865 34.0458Z" fill="#00FFB2" stroke="#00FFB2" stroke-width="0.650406" stroke-linejoin="round"/>
<path d="M23.8865 50.6312C23.843 50.4972 23.7181 50.4065 23.5772 50.4065C23.4364 50.4065 23.3115 50.4972 23.268 50.6312L21.9172 54.7883H17.5462C17.4053 54.7883 17.2804 54.8791 17.2369 55.0131C17.1933 55.147 17.241 55.2938 17.355 55.3766L20.8913 57.9459L19.5405 62.103C19.497 62.237 19.5447 62.3838 19.6587 62.4666C19.7727 62.5494 19.927 62.5494 20.041 62.4666L23.5772 59.8974L27.1135 62.4666C27.2275 62.5494 27.3818 62.5494 27.4958 62.4666C27.6098 62.3838 27.6575 62.237 27.6139 62.103L26.2632 57.9459L29.7995 55.3766C29.9135 55.2938 29.9612 55.147 29.9176 55.0131C29.8741 54.8791 29.7492 54.7883 29.6083 54.7883H25.2373L23.8865 50.6312Z" fill="#00FFB2" stroke="#00FFB2" stroke-width="0.650406" stroke-linejoin="round"/>
<path d="M23.8865 67.2166C23.843 67.0826 23.7181 66.9919 23.5772 66.9919C23.4364 66.9919 23.3115 67.0826 23.268 67.2166L21.9172 71.3737H17.5462C17.4053 71.3737 17.2804 71.4644 17.2369 71.5984C17.1933 71.7324 17.241 71.8792 17.355 71.962L20.8913 74.5313L19.5405 78.6884C19.497 78.8224 19.5447 78.9692 19.6587 79.052C19.7727 79.1348 19.927 79.1348 20.041 79.052L23.5772 76.4827L27.1135 79.052C27.2275 79.1348 27.3818 79.1348 27.4958 79.052C27.6098 78.9692 27.6575 78.8224 27.6139 78.6884L26.2632 74.5313L29.7995 71.962C29.9135 71.8792 29.9612 71.7324 29.9176 71.5984C29.8741 71.4644 29.7492 71.3737 29.6083 71.3737H25.2373L23.8865 67.2166Z" fill="black" stroke="#00FFB2" stroke-width="0.650406" stroke-linejoin="round"/>
<path d="M23.8865 83.8019C23.843 83.668 23.7181 83.5772 23.5772 83.5772C23.4364 83.5772 23.3115 83.668 23.268 83.8019L21.9172 87.9591H17.5462C17.4053 87.9591 17.2804 88.0498 17.2369 88.1838C17.1933 88.3178 17.241 88.4646 17.355 88.5474L20.8913 91.1166L19.5405 95.2738C19.497 95.4077 19.5447 95.5545 19.6587 95.6373C19.7727 95.7202 19.927 95.7202 20.041 95.6373L23.5772 93.0681L27.1135 95.6373C27.2275 95.7202 27.3818 95.7202 27.4958 95.6373C27.6098 95.5545 27.6575 95.4077 27.6139 95.2738L26.2632 91.1166L29.7995 88.5474C29.9135 88.4646 29.9612 88.3178 29.9176 88.1838C29.8741 88.0498 29.7492 87.9591 29.6083 87.9591H25.2373L23.8865 83.8019Z" fill="black" stroke="#00FFB2" stroke-width="0.650406" stroke-linejoin="round"/>
<path d="M57.0573 0.875108C57.0137 0.741117 56.8889 0.650398 56.748 0.650398C56.6071 0.650398 56.4822 0.741117 56.4387 0.875108L55.088 5.03224H50.7169C50.576 5.03224 50.4511 5.12296 50.4076 5.25695C50.3641 5.39094 50.4118 5.53773 50.5257 5.62054L54.062 8.18979L52.7113 12.3469C52.6677 12.4809 52.7154 12.6277 52.8294 12.7105C52.9434 12.7933 53.0977 12.7933 53.2117 12.7105L56.748 10.1413L60.2842 12.7105C60.3982 12.7933 60.5526 12.7933 60.6665 12.7105C60.7805 12.6277 60.8282 12.4809 60.7847 12.3469L59.4339 8.18979L62.9702 5.62054C63.0842 5.53773 63.1319 5.39094 63.0883 5.25695C63.0448 5.12296 62.9199 5.03224 62.7791 5.03224H58.408L57.0573 0.875108Z" fill="#00FFB2" stroke="#00FFB2" stroke-width="0.650406" stroke-linejoin="round"/>
<path d="M57.0573 17.4605C57.0137 17.3265 56.8889 17.2358 56.748 17.2358C56.6071 17.2358 56.4822 17.3265 56.4387 17.4605L55.088 21.6176H50.7169C50.576 21.6176 50.4511 21.7083 50.4076 21.8423C50.3641 21.9763 50.4118 22.1231 50.5257 22.2059L54.062 24.7752L52.7113 28.9323C52.6677 29.0663 52.7154 29.2131 52.8294 29.2959C52.9434 29.3787 53.0977 29.3787 53.2117 29.2959L56.748 26.7266L60.2842 29.2959C60.3982 29.3787 60.5526 29.3787 60.6665 29.2959C60.7805 29.2131 60.8282 29.0663 60.7847 28.9323L59.4339 24.7752L62.9702 22.2059C63.0842 22.1231 63.1319 21.9763 63.0883 21.8423C63.0448 21.7083 62.9199 21.6176 62.7791 21.6176H58.408L57.0573 17.4605Z" fill="#00FFB2" stroke="#00FFB2" stroke-width="0.650406" stroke-linejoin="round"/>
<path d="M57.0573 34.0458C57.0137 33.9118 56.8889 33.8211 56.748 33.8211C56.6071 33.8211 56.4822 33.9118 56.4387 34.0458L55.088 38.203H50.7169C50.576 38.203 50.4511 38.2937 50.4076 38.4277C50.3641 38.5617 50.4118 38.7085 50.5257 38.7913L54.062 41.3605L52.7113 45.5177C52.6677 45.6516 52.7154 45.7984 52.8294 45.8812C52.9434 45.9641 53.0977 45.9641 53.2117 45.8812L56.748 43.312L60.2842 45.8812C60.3982 45.9641 60.5526 45.9641 60.6665 45.8812C60.7805 45.7984 60.8282 45.6516 60.7847 45.5177L59.4339 41.3605L62.9702 38.7913C63.0842 38.7085 63.1319 38.5617 63.0883 38.4277C63.0448 38.2937 62.9199 38.203 62.7791 38.203H58.408L57.0573 34.0458Z" fill="black" stroke="#00FFB2" stroke-width="0.650406" stroke-linejoin="round"/>
<path d="M57.0573 50.6312C57.0137 50.4972 56.8889 50.4065 56.748 50.4065C56.6071 50.4065 56.4822 50.4972 56.4387 50.6312L55.088 54.7883H50.7169C50.576 54.7883 50.4511 54.8791 50.4076 55.0131C50.3641 55.147 50.4118 55.2938 50.5257 55.3766L54.062 57.9459L52.7113 62.103C52.6677 62.237 52.7154 62.3838 52.8294 62.4666C52.9434 62.5494 53.0977 62.5494 53.2117 62.4666L56.748 59.8974L60.2842 62.4666C60.3982 62.5494 60.5526 62.5494 60.6665 62.4666C60.7805 62.3838 60.8282 62.237 60.7847 62.103L59.4339 57.9459L62.9702 55.3766C63.0842 55.2938 63.1319 55.147 63.0883 55.0131C63.0448 54.8791 62.9199 54.7883 62.7791 54.7883H58.408L57.0573 50.6312Z" fill="black" stroke="#00FFB2" stroke-width="0.650406" stroke-linejoin="round"/>
<path d="M57.0573 67.2166C57.0137 67.0826 56.8889 66.9919 56.748 66.9919C56.6071 66.9919 56.4822 67.0826 56.4387 67.2166L55.088 71.3737H50.7169C50.576 71.3737 50.4511 71.4644 50.4076 71.5984C50.3641 71.7324 50.4118 71.8792 50.5257 71.962L54.062 74.5313L52.7113 78.6884C52.6677 78.8224 52.7154 78.9692 52.8294 79.052C52.9434 79.1348 53.0977 79.1348 53.2117 79.052L56.748 76.4827L60.2842 79.052C60.3982 79.1348 60.5526 79.1348 60.6665 79.052C60.7805 78.9692 60.8282 78.8224 60.7847 78.6884L59.4339 74.5313L62.9702 71.962C63.0842 71.8792 63.1319 71.7324 63.0883 71.5984C63.0448 71.4644 62.9199 71.3737 62.7791 71.3737H58.408L57.0573 67.2166Z" fill="black" stroke="#00FFB2" stroke-width="0.650406" stroke-linejoin="round"/>
<path d="M57.0573 83.8019C57.0137 83.668 56.8889 83.5772 56.748 83.5772C56.6071 83.5772 56.4822 83.668 56.4387 83.8019L55.088 87.9591H50.7169C50.576 87.9591 50.4511 88.0498 50.4076 88.1838C50.3641 88.3178 50.4118 88.4646 50.5257 88.5474L54.062 91.1166L52.7113 95.2738C52.6677 95.4077 52.7154 95.5545 52.8294 95.6373C52.9434 95.7202 53.0977 95.7202 53.2117 95.6373L56.748 93.0681L60.2842 95.6373C60.3982 95.7202 60.5526 95.7202 60.6665 95.6373C60.7805 95.5545 60.8282 95.4077 60.7847 95.2738L59.4339 91.1166L62.9702 88.5474C63.0842 88.4646 63.1319 88.3178 63.0883 88.1838C63.0448 88.0498 62.9199 87.9591 62.7791 87.9591H58.408L57.0573 83.8019Z" fill="black" stroke="#00FFB2" stroke-width="0.650406" stroke-linejoin="round"/>
<path d="M73.6426 0.875108C73.5991 0.741117 73.4742 0.650398 73.3333 0.650398C73.1925 0.650398 73.0676 0.741117 73.0241 0.875108L71.6733 5.03224H67.3023C67.1614 5.03224 67.0365 5.12296 66.993 5.25695C66.9494 5.39094 66.9971 5.53773 67.1111 5.62054L70.6474 8.18979L69.2966 12.3469C69.2531 12.4809 69.3008 12.6277 69.4148 12.7105C69.5288 12.7933 69.6831 12.7933 69.7971 12.7105L73.3333 10.1413L76.8696 12.7105C76.9836 12.7933 77.1379 12.7933 77.2519 12.7105C77.3659 12.6277 77.4136 12.4809 77.3701 12.3469L76.0193 8.18979L79.5556 5.62054C79.6696 5.53773 79.7173 5.39094 79.6737 5.25695C79.6302 5.12296 79.5053 5.03224 79.3644 5.03224H74.9934L73.6426 0.875108Z" fill="#00FFB2" stroke="#00FFB2" stroke-width="0.650406" stroke-linejoin="round"/>
<path d="M73.6426 17.4605C73.5991 17.3265 73.4742 17.2358 73.3333 17.2358C73.1925 17.2358 73.0676 17.3265 73.0241 17.4605L71.6733 21.6176H67.3023C67.1614 21.6176 67.0365 21.7083 66.993 21.8423C66.9494 21.9763 66.9971 22.1231 67.1111 22.2059L70.6474 24.7752L69.2966 28.9323C69.2531 29.0663 69.3008 29.2131 69.4148 29.2959C69.5288 29.3787 69.6831 29.3787 69.7971 29.2959L73.3333 26.7266L76.8696 29.2959C76.9836 29.3787 77.1379 29.3787 77.2519 29.2959C77.3659 29.2131 77.4136 29.0663 77.3701 28.9323L76.0193 24.7752L79.5556 22.2059C79.6696 22.1231 79.7173 21.9763 79.6737 21.8423C79.6302 21.7083 79.5053 21.6176 79.3644 21.6176H74.9934L73.6426 17.4605Z" fill="black" stroke="#00FFB2" stroke-width="0.650406" stroke-linejoin="round"/>
<path d="M73.6426 34.0458C73.5991 33.9118 73.4742 33.8211 73.3333 33.8211C73.1925 33.8211 73.0676 33.9118 73.0241 34.0458L71.6733 38.203H67.3023C67.1614 38.203 67.0365 38.2937 66.993 38.4277C66.9494 38.5617 66.9971 38.7085 67.1111 38.7913L70.6474 41.3605L69.2966 45.5177C69.2531 45.6516 69.3008 45.7984 69.4148 45.8812C69.5288 45.9641 69.6831 45.9641 69.7971 45.8812L73.3333 43.312L76.8696 45.8812C76.9836 45.9641 77.1379 45.9641 77.2519 45.8812C77.3659 45.7984 77.4136 45.6516 77.3701 45.5177L76.0193 41.3605L79.5556 38.7913C79.6696 38.7085 79.7173 38.5617 79.6737 38.4277C79.6302 38.2937 79.5053 38.203 79.3644 38.203H74.9934L73.6426 34.0458Z" fill="black" stroke="#00FFB2" stroke-width="0.650406" stroke-linejoin="round"/>
<path d="M73.6426 50.6312C73.5991 50.4972 73.4742 50.4065 73.3333 50.4065C73.1925 50.4065 73.0676 50.4972 73.0241 50.6312L71.6733 54.7883H67.3023C67.1614 54.7883 67.0365 54.8791 66.993 55.0131C66.9494 55.147 66.9971 55.2938 67.1111 55.3766L70.6474 57.9459L69.2966 62.103C69.2531 62.237 69.3008 62.3838 69.4148 62.4666C69.5288 62.5494 69.6831 62.5494 69.7971 62.4666L73.3333 59.8974L76.8696 62.4666C76.9836 62.5494 77.1379 62.5494 77.2519 62.4666C77.3659 62.3838 77.4136 62.237 77.3701 62.103L76.0193 57.9459L79.5556 55.3766C79.6696 55.2938 79.7173 55.147 79.6737 55.0131C79.6302 54.8791 79.5053 54.7883 79.3644 54.7883H74.9934L73.6426 50.6312Z" fill="black" stroke="#00FFB2" stroke-width="0.650406" stroke-linejoin="round"/>
<path d="M73.6426 67.2166C73.5991 67.0826 73.4742 66.9919 73.3333 66.9919C73.1925 66.9919 73.0676 67.0826 73.0241 67.2166L71.6733 71.3737H67.3023C67.1614 71.3737 67.0365 71.4644 66.993 71.5984C66.9494 71.7324 66.9971 71.8792 67.1111 71.962L70.6474 74.5313L69.2966 78.6884C69.2531 78.8224 69.3008 78.9692 69.4148 79.052C69.5288 79.1348 69.6831 79.1348 69.7971 79.052L73.3333 76.4827L76.8696 79.052C76.9836 79.1348 77.1379 79.1348 77.2519 79.052C77.3659 78.9692 77.4136 78.8224 77.3701 78.6884L76.0193 74.5313L79.5556 71.962C79.6696 71.8792 79.7173 71.7324 79.6737 71.5984C79.6302 71.4644 79.5053 71.3737 79.3644 71.3737H74.9934L73.6426 67.2166Z" fill="black" stroke="#00FFB2" stroke-width="0.650406" stroke-linejoin="round"/>
<path d="M73.6426 83.8019C73.5991 83.668 73.4742 83.5772 73.3333 83.5772C73.1925 83.5772 73.0676 83.668 73.0241 83.8019L71.6733 87.9591H67.3023C67.1614 87.9591 67.0365 88.0498 66.993 88.1838C66.9494 88.3178 66.9971 88.4646 67.1111 88.5474L70.6474 91.1166L69.2966 95.2738C69.2531 95.4077 69.3008 95.5545 69.4148 95.6373C69.5288 95.7202 69.6831 95.7202 69.7971 95.6373L73.3333 93.0681L76.8696 95.6373C76.9836 95.7202 77.1379 95.7202 77.2519 95.6373C77.3659 95.5545 77.4136 95.4077 77.3701 95.2738L76.0193 91.1166L79.5556 88.5474C79.6696 88.4646 79.7173 88.3178 79.6737 88.1838C79.6302 88.0498 79.5053 87.9591 79.3644 87.9591H74.9934L73.6426 83.8019Z" fill="black" stroke="#00FFB2" stroke-width="0.650406" stroke-linejoin="round"/>
</svg>
