<svg width="71" height="85" viewBox="0 0 71 85" fill="none" xmlns="http://www.w3.org/2000/svg">
<path d="M6.38853 0.765721C6.35043 0.648479 6.24118 0.5691 6.1179 0.5691C5.99463 0.5691 5.88537 0.648479 5.84728 0.765721L4.66538 4.40321L0.840699 4.40321C0.717423 4.40321 0.608168 4.48259 0.570073 4.59983C0.531979 4.71708 0.573711 4.84551 0.673443 4.91797L3.76768 7.16607L2.58579 10.8036C2.54769 10.9208 2.58942 11.0492 2.68916 11.1217C2.78889 11.1942 2.92394 11.1942 3.02367 11.1217L6.1179 8.87361L9.21214 11.1217C9.31187 11.1942 9.44692 11.1942 9.54665 11.1217C9.64638 11.0492 9.68812 10.9208 9.65002 10.8036L8.46813 7.16607L11.5624 4.91797C11.6621 4.84551 11.7038 4.71708 11.6657 4.59983C11.6276 4.48259 11.5184 4.40321 11.3951 4.40321L7.57042 4.40321L6.38853 0.765721Z" fill="#00FFB2" stroke="#00FFB2" stroke-width="0.569106" stroke-linejoin="round"/>
<path d="M6.38853 15.2779C6.35043 15.1607 6.24118 15.0813 6.1179 15.0813C5.99463 15.0813 5.88537 15.1607 5.84728 15.2779L4.66538 18.9154L0.840699 18.9154C0.717423 18.9154 0.608168 18.9948 0.570073 19.112C0.531979 19.2293 0.573711 19.3577 0.673443 19.4302L3.76768 21.6783L2.58579 25.3158C2.54769 25.433 2.58942 25.5614 2.68916 25.6339C2.78889 25.7064 2.92394 25.7064 3.02367 25.6339L6.1179 23.3858L9.21214 25.6339C9.31187 25.7064 9.44692 25.7064 9.54665 25.6339C9.64638 25.5614 9.68812 25.433 9.65002 25.3158L8.46813 21.6783L11.5624 19.4302C11.6621 19.3577 11.7038 19.2293 11.6657 19.112C11.6276 18.9948 11.5184 18.9154 11.3951 18.9154L7.57042 18.9154L6.38853 15.2779Z" fill="#00FFB2" stroke="#00FFB2" stroke-width="0.569106" stroke-linejoin="round"/>
<path d="M6.38853 29.7901C6.35043 29.6729 6.24118 29.5935 6.1179 29.5935C5.99463 29.5935 5.88537 29.6729 5.84728 29.7901L4.66538 33.4276L0.840699 33.4276C0.717423 33.4276 0.608168 33.507 0.570073 33.6242C0.531979 33.7415 0.573711 33.8699 0.673443 33.9424L3.76768 36.1905L2.58579 39.8279C2.54769 39.9452 2.58942 40.0736 2.68916 40.1461C2.78889 40.2185 2.92394 40.2185 3.02367 40.1461L6.1179 37.898L9.21214 40.1461C9.31187 40.2185 9.44692 40.2185 9.54665 40.1461C9.64638 40.0736 9.68812 39.9452 9.65002 39.8279L8.46813 36.1905L11.5624 33.9424C11.6621 33.8699 11.7038 33.7415 11.6657 33.6242C11.6276 33.507 11.5184 33.4276 11.3951 33.4276L7.57042 33.4276L6.38853 29.7901Z" fill="#00FFB2" stroke="#00FFB2" stroke-width="0.569106" stroke-linejoin="round"/>
<path d="M6.38853 44.3023C6.35043 44.1851 6.24118 44.1057 6.1179 44.1057C5.99463 44.1057 5.88537 44.1851 5.84728 44.3023L4.66538 47.9398L0.840699 47.9398C0.717423 47.9398 0.608168 48.0192 0.570073 48.1364C0.531979 48.2537 0.573711 48.3821 0.673443 48.4546L3.76768 50.7027L2.58579 54.3401C2.54769 54.4574 2.58942 54.5858 2.68916 54.6583C2.78889 54.7307 2.92394 54.7307 3.02367 54.6583L6.1179 52.4102L9.21214 54.6583C9.31187 54.7307 9.44692 54.7307 9.54665 54.6583C9.64638 54.5858 9.68812 54.4574 9.65002 54.3401L8.46813 50.7027L11.5624 48.4546C11.6621 48.3821 11.7038 48.2537 11.6657 48.1364C11.6276 48.0192 11.5184 47.9398 11.3951 47.9398L7.57042 47.9398L6.38853 44.3023Z" fill="#00FFB2" stroke="#00FFB2" stroke-width="0.569106" stroke-linejoin="round"/>
<path d="M6.38853 58.8145C6.35043 58.6973 6.24118 58.6179 6.1179 58.6179C5.99463 58.6179 5.88537 58.6973 5.84728 58.8145L4.66538 62.452L0.840699 62.452C0.717423 62.452 0.608168 62.5314 0.570073 62.6486C0.531979 62.7659 0.573711 62.8943 0.673443 62.9668L3.76768 65.2148L2.58579 68.8523C2.54769 68.9696 2.58942 69.098 2.68916 69.1705C2.78889 69.2429 2.92394 69.2429 3.02367 69.1705L6.1179 66.9224L9.21214 69.1705C9.31187 69.2429 9.44692 69.2429 9.54665 69.1705C9.64638 69.098 9.68812 68.9696 9.65002 68.8523L8.46813 65.2148L11.5624 62.9668C11.6621 62.8943 11.7038 62.7659 11.6657 62.6486C11.6276 62.5314 11.5184 62.452 11.3951 62.452L7.57042 62.452L6.38853 58.8145Z" fill="#00FFB2" stroke="#00FFB2" stroke-width="0.569106" stroke-linejoin="round"/>
<path d="M6.38853 73.3267C6.35043 73.2095 6.24118 73.1301 6.1179 73.1301C5.99463 73.1301 5.88537 73.2095 5.84728 73.3267L4.66538 76.9642L0.840699 76.9642C0.717423 76.9642 0.608168 77.0436 0.570073 77.1608C0.531979 77.2781 0.573711 77.4065 0.673443 77.4789L3.76768 79.727L2.58579 83.3645C2.54769 83.4818 2.58942 83.6102 2.68916 83.6827C2.78889 83.7551 2.92394 83.7551 3.02367 83.6827L6.1179 81.4346L9.21214 83.6827C9.31187 83.7551 9.44692 83.7551 9.54665 83.6827C9.64638 83.6102 9.68812 83.4818 9.65002 83.3645L8.46813 79.727L11.5624 77.4789C11.6621 77.4065 11.7038 77.2781 11.6657 77.1608C11.6276 77.0436 11.5184 76.9642 11.3951 76.9642L7.57042 76.9642L6.38853 73.3267Z" fill="black" stroke="#00FFB2" stroke-width="0.569106" stroke-linejoin="round"/>
<path d="M35.4129 0.765721C35.3748 0.648479 35.2656 0.5691 35.1423 0.5691C35.019 0.5691 34.9098 0.648479 34.8717 0.765721L33.6898 4.40321L29.8651 4.40321C29.7418 4.40321 29.6326 4.48259 29.5945 4.59983C29.5564 4.71708 29.5981 4.84551 29.6978 4.91797L32.7921 7.16607L31.6102 10.8036C31.5721 10.9208 31.6138 11.0492 31.7135 11.1217C31.8133 11.1942 31.9483 11.1942 32.0481 11.1217L35.1423 8.87361L38.2365 11.1217C38.3363 11.1942 38.4713 11.1942 38.571 11.1217C38.6708 11.0492 38.7125 10.9208 38.6744 10.8036L37.4925 7.16607L40.5867 4.91797C40.6865 4.84551 40.7282 4.71708 40.6901 4.59983C40.652 4.48259 40.5428 4.40321 40.4195 4.40321L36.5948 4.40321L35.4129 0.765721Z" fill="#00FFB2" stroke="#00FFB2" stroke-width="0.569106" stroke-linejoin="round"/>
<path d="M35.4129 15.2779C35.3748 15.1607 35.2656 15.0813 35.1423 15.0813C35.019 15.0813 34.9098 15.1607 34.8717 15.2779L33.6898 18.9154L29.8651 18.9154C29.7418 18.9154 29.6326 18.9948 29.5945 19.112C29.5564 19.2293 29.5981 19.3577 29.6978 19.4302L32.7921 21.6783L31.6102 25.3158C31.5721 25.433 31.6138 25.5614 31.7135 25.6339C31.8133 25.7064 31.9483 25.7064 32.0481 25.6339L35.1423 23.3858L38.2365 25.6339C38.3363 25.7064 38.4713 25.7064 38.571 25.6339C38.6708 25.5614 38.7125 25.433 38.6744 25.3158L37.4925 21.6783L40.5867 19.4302C40.6865 19.3577 40.7282 19.2293 40.6901 19.112C40.652 18.9948 40.5428 18.9154 40.4195 18.9154L36.5948 18.9154L35.4129 15.2779Z" fill="#00FFB2" stroke="#00FFB2" stroke-width="0.569106" stroke-linejoin="round"/>
<path d="M35.4129 29.7901C35.3748 29.6729 35.2656 29.5935 35.1423 29.5935C35.019 29.5935 34.9098 29.6729 34.8717 29.7901L33.6898 33.4276L29.8651 33.4276C29.7418 33.4276 29.6326 33.507 29.5945 33.6242C29.5564 33.7415 29.5981 33.8699 29.6978 33.9424L32.7921 36.1905L31.6102 39.8279C31.5721 39.9452 31.6138 40.0736 31.7135 40.1461C31.8133 40.2185 31.9483 40.2185 32.0481 40.1461L35.1423 37.898L38.2365 40.1461C38.3363 40.2185 38.4713 40.2185 38.571 40.1461C38.6708 40.0736 38.7125 39.9452 38.6744 39.8279L37.4925 36.1905L40.5867 33.9424C40.6865 33.8699 40.7282 33.7415 40.6901 33.6242C40.652 33.507 40.5428 33.4276 40.4195 33.4276L36.5948 33.4276L35.4129 29.7901Z" fill="#00FFB2" stroke="#00FFB2" stroke-width="0.569106" stroke-linejoin="round"/>
<path d="M35.4129 44.3023C35.3748 44.1851 35.2656 44.1057 35.1423 44.1057C35.019 44.1057 34.9098 44.1851 34.8717 44.3023L33.6898 47.9398L29.8651 47.9398C29.7418 47.9398 29.6326 48.0192 29.5945 48.1364C29.5564 48.2537 29.5981 48.3821 29.6978 48.4546L32.7921 50.7027L31.6102 54.3401C31.5721 54.4574 31.6138 54.5858 31.7135 54.6583C31.8133 54.7307 31.9483 54.7307 32.0481 54.6583L35.1423 52.4102L38.2365 54.6583C38.3363 54.7307 38.4713 54.7307 38.571 54.6583C38.6708 54.5858 38.7125 54.4574 38.6744 54.3401L37.4925 50.7027L40.5867 48.4546C40.6865 48.3821 40.7282 48.2537 40.6901 48.1364C40.652 48.0192 40.5428 47.9398 40.4195 47.9398L36.5948 47.9398L35.4129 44.3023Z" fill="black" stroke="#00FFB2" stroke-width="0.569106" stroke-linejoin="round"/>
<path d="M35.4129 58.8145C35.3748 58.6973 35.2656 58.6179 35.1423 58.6179C35.019 58.6179 34.9098 58.6973 34.8717 58.8145L33.6898 62.452L29.8651 62.452C29.7418 62.452 29.6326 62.5314 29.5945 62.6486C29.5564 62.7659 29.5981 62.8943 29.6978 62.9668L32.7921 65.2148L31.6102 68.8523C31.5721 68.9696 31.6138 69.098 31.7135 69.1705C31.8133 69.2429 31.9483 69.2429 32.0481 69.1705L35.1423 66.9224L38.2365 69.1705C38.3363 69.2429 38.4713 69.2429 38.571 69.1705C38.6708 69.098 38.7125 68.9696 38.6744 68.8523L37.4925 65.2148L40.5867 62.9668C40.6865 62.8943 40.7282 62.7659 40.6901 62.6486C40.652 62.5314 40.5428 62.452 40.4195 62.452L36.5948 62.452L35.4129 58.8145Z" fill="black" stroke="#00FFB2" stroke-width="0.569106" stroke-linejoin="round"/>
<path d="M35.4129 73.3267C35.3748 73.2095 35.2656 73.1301 35.1423 73.1301C35.019 73.1301 34.9098 73.2095 34.8717 73.3267L33.6898 76.9642L29.8651 76.9642C29.7418 76.9642 29.6326 77.0436 29.5945 77.1608C29.5564 77.2781 29.5981 77.4065 29.6978 77.4789L32.7921 79.727L31.6102 83.3645C31.5721 83.4818 31.6138 83.6102 31.7135 83.6827C31.8133 83.7551 31.9483 83.7551 32.0481 83.6827L35.1423 81.4346L38.2365 83.6827C38.3363 83.7551 38.4713 83.7551 38.571 83.6827C38.6708 83.6102 38.7125 83.4818 38.6744 83.3645L37.4925 79.727L40.5867 77.4789C40.6865 77.4065 40.7282 77.2781 40.6901 77.1608C40.652 77.0436 40.5428 76.9642 40.4195 76.9642L36.5948 76.9642L35.4129 73.3267Z" fill="black" stroke="#00FFB2" stroke-width="0.569106" stroke-linejoin="round"/>
<path d="M20.9007 0.765721C20.8626 0.648479 20.7534 0.5691 20.6301 0.5691C20.5068 0.5691 20.3975 0.648479 20.3595 0.765721L19.1776 4.40321L15.3529 4.40321C15.2296 4.40321 15.1203 4.48259 15.0822 4.59983C15.0442 4.71708 15.0859 4.84551 15.1856 4.91797L18.2799 7.16607L17.098 10.8036C17.0599 10.9208 17.1016 11.0492 17.2013 11.1217C17.3011 11.1942 17.4361 11.1942 17.5358 11.1217L20.6301 8.87361L23.7243 11.1217C23.824 11.1942 23.9591 11.1942 24.0588 11.1217C24.1586 11.0492 24.2003 10.9208 24.1622 10.8036L22.9803 7.16607L26.0745 4.91797C26.1743 4.84551 26.216 4.71708 26.1779 4.59983C26.1398 4.48259 26.0306 4.40321 25.9073 4.40321L22.0826 4.40321L20.9007 0.765721Z" fill="#00FFB2" stroke="#00FFB2" stroke-width="0.569106" stroke-linejoin="round"/>
<path d="M20.9007 15.2779C20.8626 15.1607 20.7534 15.0813 20.6301 15.0813C20.5068 15.0813 20.3975 15.1607 20.3595 15.2779L19.1776 18.9154L15.3529 18.9154C15.2296 18.9154 15.1203 18.9948 15.0822 19.112C15.0442 19.2293 15.0859 19.3577 15.1856 19.4302L18.2799 21.6783L17.098 25.3158C17.0599 25.433 17.1016 25.5614 17.2013 25.6339C17.3011 25.7064 17.4361 25.7064 17.5358 25.6339L20.6301 23.3858L23.7243 25.6339C23.824 25.7064 23.9591 25.7064 24.0588 25.6339C24.1586 25.5614 24.2003 25.433 24.1622 25.3158L22.9803 21.6783L26.0745 19.4302C26.1743 19.3577 26.216 19.2293 26.1779 19.112C26.1398 18.9948 26.0306 18.9154 25.9073 18.9154L22.0826 18.9154L20.9007 15.2779Z" fill="#00FFB2" stroke="#00FFB2" stroke-width="0.569106" stroke-linejoin="round"/>
<path d="M20.9007 29.7901C20.8626 29.6729 20.7534 29.5935 20.6301 29.5935C20.5068 29.5935 20.3975 29.6729 20.3595 29.7901L19.1776 33.4276L15.3529 33.4276C15.2296 33.4276 15.1203 33.507 15.0822 33.6242C15.0442 33.7415 15.0859 33.8699 15.1856 33.9424L18.2799 36.1905L17.098 39.8279C17.0599 39.9452 17.1016 40.0736 17.2013 40.1461C17.3011 40.2185 17.4361 40.2185 17.5358 40.1461L20.6301 37.898L23.7243 40.1461C23.824 40.2185 23.9591 40.2185 24.0588 40.1461C24.1586 40.0736 24.2003 39.9452 24.1622 39.8279L22.9803 36.1905L26.0745 33.9424C26.1743 33.8699 26.216 33.7415 26.1779 33.6242C26.1398 33.507 26.0306 33.4276 25.9073 33.4276L22.0826 33.4276L20.9007 29.7901Z" fill="#00FFB2" stroke="#00FFB2" stroke-width="0.569106" stroke-linejoin="round"/>
<path d="M20.9007 44.3023C20.8626 44.1851 20.7534 44.1057 20.6301 44.1057C20.5068 44.1057 20.3975 44.1851 20.3595 44.3023L19.1776 47.9398L15.3529 47.9398C15.2296 47.9398 15.1203 48.0192 15.0822 48.1364C15.0442 48.2537 15.0859 48.3821 15.1856 48.4546L18.2799 50.7027L17.098 54.3401C17.0599 54.4574 17.1016 54.5858 17.2013 54.6583C17.3011 54.7307 17.4361 54.7307 17.5358 54.6583L20.6301 52.4102L23.7243 54.6583C23.824 54.7307 23.9591 54.7307 24.0588 54.6583C24.1586 54.5858 24.2003 54.4574 24.1622 54.3401L22.9803 50.7027L26.0745 48.4546C26.1743 48.3821 26.216 48.2537 26.1779 48.1364C26.1398 48.0192 26.0306 47.9398 25.9073 47.9398L22.0826 47.9398L20.9007 44.3023Z" fill="#00FFB2" stroke="#00FFB2" stroke-width="0.569106" stroke-linejoin="round"/>
<path d="M20.9007 58.8145C20.8626 58.6973 20.7534 58.6179 20.6301 58.6179C20.5068 58.6179 20.3975 58.6973 20.3595 58.8145L19.1776 62.452L15.3529 62.452C15.2296 62.452 15.1203 62.5314 15.0822 62.6486C15.0442 62.7659 15.0859 62.8943 15.1856 62.9668L18.2799 65.2148L17.098 68.8523C17.0599 68.9696 17.1016 69.098 17.2013 69.1705C17.3011 69.2429 17.4361 69.2429 17.5358 69.1705L20.6301 66.9224L23.7243 69.1705C23.824 69.2429 23.9591 69.2429 24.0588 69.1705C24.1586 69.098 24.2003 68.9696 24.1622 68.8523L22.9803 65.2148L26.0745 62.9668C26.1743 62.8943 26.216 62.7659 26.1779 62.6486C26.1398 62.5314 26.0306 62.452 25.9073 62.452L22.0826 62.452L20.9007 58.8145Z" fill="black" stroke="#00FFB2" stroke-width="0.569106" stroke-linejoin="round"/>
<path d="M20.9007 73.3267C20.8626 73.2095 20.7534 73.1301 20.6301 73.1301C20.5068 73.1301 20.3975 73.2095 20.3595 73.3267L19.1776 76.9642L15.3529 76.9642C15.2296 76.9642 15.1203 77.0436 15.0822 77.1608C15.0442 77.2781 15.0859 77.4065 15.1856 77.4789L18.2799 79.727L17.098 83.3645C17.0599 83.4818 17.1016 83.6102 17.2013 83.6827C17.3011 83.7551 17.4361 83.7551 17.5358 83.6827L20.6301 81.4346L23.7243 83.6827C23.824 83.7551 23.9591 83.7551 24.0588 83.6827C24.1586 83.6102 24.2003 83.4818 24.1622 83.3645L22.9803 79.727L26.0745 77.4789C26.1743 77.4065 26.216 77.2781 26.1779 77.1608C26.1398 77.0436 26.0306 76.9642 25.9073 76.9642L22.0826 76.9642L20.9007 73.3267Z" fill="black" stroke="#00FFB2" stroke-width="0.569106" stroke-linejoin="round"/>
<path d="M49.9251 0.765721C49.887 0.648479 49.7778 0.5691 49.6545 0.5691C49.5312 0.5691 49.4219 0.648479 49.3839 0.765721L48.202 4.40321L44.3773 4.40321C44.254 4.40321 44.1447 4.48259 44.1066 4.59983C44.0686 4.71708 44.1103 4.84551 44.21 4.91797L47.3043 7.16607L46.1224 10.8036C46.0843 10.9208 46.126 11.0492 46.2257 11.1217C46.3255 11.1942 46.4605 11.1942 46.5602 11.1217L49.6545 8.87361L52.7487 11.1217C52.8484 11.1942 52.9835 11.1942 53.0832 11.1217C53.183 11.0492 53.2247 10.9208 53.1866 10.8036L52.0047 7.16607L55.0989 4.91797C55.1987 4.84551 55.2404 4.71708 55.2023 4.59983C55.1642 4.48259 55.055 4.40321 54.9317 4.40321L51.107 4.40321L49.9251 0.765721Z" fill="#00FFB2" stroke="#00FFB2" stroke-width="0.569106" stroke-linejoin="round"/>
<path d="M49.9251 15.2779C49.887 15.1607 49.7778 15.0813 49.6545 15.0813C49.5312 15.0813 49.4219 15.1607 49.3839 15.2779L48.202 18.9154L44.3773 18.9154C44.254 18.9154 44.1447 18.9948 44.1066 19.112C44.0686 19.2293 44.1103 19.3577 44.21 19.4302L47.3043 21.6783L46.1224 25.3158C46.0843 25.433 46.126 25.5614 46.2257 25.6339C46.3255 25.7064 46.4605 25.7064 46.5602 25.6339L49.6545 23.3858L52.7487 25.6339C52.8484 25.7064 52.9835 25.7064 53.0832 25.6339C53.183 25.5614 53.2247 25.433 53.1866 25.3158L52.0047 21.6783L55.0989 19.4302C55.1987 19.3577 55.2404 19.2293 55.2023 19.112C55.1642 18.9948 55.055 18.9154 54.9317 18.9154L51.107 18.9154L49.9251 15.2779Z" fill="#00FFB2" stroke="#00FFB2" stroke-width="0.569106" stroke-linejoin="round"/>
<path d="M49.9251 29.7901C49.887 29.6729 49.7778 29.5935 49.6545 29.5935C49.5312 29.5935 49.4219 29.6729 49.3839 29.7901L48.202 33.4276L44.3773 33.4276C44.254 33.4276 44.1447 33.507 44.1066 33.6242C44.0686 33.7415 44.1103 33.8699 44.21 33.9424L47.3043 36.1905L46.1224 39.8279C46.0843 39.9452 46.126 40.0736 46.2257 40.1461C46.3255 40.2185 46.4605 40.2185 46.5602 40.1461L49.6545 37.898L52.7487 40.1461C52.8484 40.2185 52.9835 40.2185 53.0832 40.1461C53.183 40.0736 53.2247 39.9452 53.1866 39.8279L52.0047 36.1905L55.0989 33.9424C55.1987 33.8699 55.2404 33.7415 55.2023 33.6242C55.1642 33.507 55.055 33.4276 54.9317 33.4276L51.107 33.4276L49.9251 29.7901Z" fill="black" stroke="#00FFB2" stroke-width="0.569106" stroke-linejoin="round"/>
<path d="M49.9251 44.3023C49.887 44.1851 49.7778 44.1057 49.6545 44.1057C49.5312 44.1057 49.4219 44.1851 49.3839 44.3023L48.202 47.9398L44.3773 47.9398C44.254 47.9398 44.1447 48.0192 44.1066 48.1364C44.0686 48.2537 44.1103 48.3821 44.21 48.4546L47.3043 50.7027L46.1224 54.3401C46.0843 54.4574 46.126 54.5858 46.2257 54.6583C46.3255 54.7307 46.4605 54.7307 46.5602 54.6583L49.6545 52.4102L52.7487 54.6583C52.8484 54.7307 52.9835 54.7307 53.0832 54.6583C53.183 54.5858 53.2247 54.4574 53.1866 54.3401L52.0047 50.7027L55.0989 48.4546C55.1987 48.3821 55.2404 48.2537 55.2023 48.1364C55.1642 48.0192 55.055 47.9398 54.9317 47.9398L51.107 47.9398L49.9251 44.3023Z" fill="black" stroke="#00FFB2" stroke-width="0.569106" stroke-linejoin="round"/>
<path d="M49.9251 58.8145C49.887 58.6973 49.7778 58.6179 49.6545 58.6179C49.5312 58.6179 49.4219 58.6973 49.3839 58.8145L48.202 62.452L44.3773 62.452C44.254 62.452 44.1447 62.5314 44.1066 62.6486C44.0686 62.7659 44.1103 62.8943 44.21 62.9668L47.3043 65.2148L46.1224 68.8523C46.0843 68.9696 46.126 69.098 46.2257 69.1705C46.3255 69.2429 46.4605 69.2429 46.5602 69.1705L49.6545 66.9224L52.7487 69.1705C52.8484 69.2429 52.9835 69.2429 53.0832 69.1705C53.183 69.098 53.2247 68.9696 53.1866 68.8523L52.0047 65.2148L55.0989 62.9668C55.1987 62.8943 55.2404 62.7659 55.2023 62.6486C55.1642 62.5314 55.055 62.452 54.9317 62.452L51.107 62.452L49.9251 58.8145Z" fill="black" stroke="#00FFB2" stroke-width="0.569106" stroke-linejoin="round"/>
<path d="M49.9251 73.3267C49.887 73.2095 49.7778 73.1301 49.6545 73.1301C49.5312 73.1301 49.4219 73.2095 49.3839 73.3267L48.202 76.9642L44.3773 76.9642C44.254 76.9642 44.1447 77.0436 44.1066 77.1608C44.0686 77.2781 44.1103 77.4065 44.21 77.4789L47.3043 79.727L46.1224 83.3645C46.0843 83.4818 46.126 83.6102 46.2257 83.6827C46.3255 83.7551 46.4605 83.7551 46.5602 83.6827L49.6545 81.4346L52.7487 83.6827C52.8484 83.7551 52.9835 83.7551 53.0832 83.6827C53.183 83.6102 53.2247 83.4818 53.1866 83.3645L52.0047 79.727L55.0989 77.4789C55.1987 77.4065 55.2404 77.2781 55.2023 77.1608C55.1642 77.0436 55.055 76.9642 54.9317 76.9642L51.107 76.9642L49.9251 73.3267Z" fill="black" stroke="#00FFB2" stroke-width="0.569106" stroke-linejoin="round"/>
<path d="M64.4373 0.765721C64.3992 0.648479 64.2899 0.5691 64.1667 0.5691C64.0434 0.5691 63.9341 0.648479 63.896 0.765721L62.7142 4.40321L58.8895 4.40321C58.7662 4.40321 58.6569 4.48259 58.6188 4.59983C58.5807 4.71708 58.6225 4.84551 58.7222 4.91797L61.8164 7.16607L60.6346 10.8036C60.5965 10.9208 60.6382 11.0492 60.7379 11.1217C60.8377 11.1942 60.9727 11.1942 61.0724 11.1217L64.1667 8.87361L67.2609 11.1217C67.3606 11.1942 67.4957 11.1942 67.5954 11.1217C67.6951 11.0492 67.7369 10.9208 67.6988 10.8036L66.5169 7.16607L69.6111 4.91797C69.7109 4.84551 69.7526 4.71708 69.7145 4.59983C69.6764 4.48259 69.5671 4.40321 69.4439 4.40321L65.6192 4.40321L64.4373 0.765721Z" fill="#00FFB2" stroke="#00FFB2" stroke-width="0.569106" stroke-linejoin="round"/>
<path d="M64.4373 15.2779C64.3992 15.1607 64.2899 15.0813 64.1667 15.0813C64.0434 15.0813 63.9341 15.1607 63.896 15.2779L62.7142 18.9154L58.8895 18.9154C58.7662 18.9154 58.6569 18.9948 58.6188 19.112C58.5807 19.2293 58.6225 19.3577 58.7222 19.4302L61.8164 21.6783L60.6346 25.3158C60.5965 25.433 60.6382 25.5614 60.7379 25.6339C60.8377 25.7064 60.9727 25.7064 61.0724 25.6339L64.1667 23.3858L67.2609 25.6339C67.3606 25.7064 67.4957 25.7064 67.5954 25.6339C67.6951 25.5614 67.7369 25.433 67.6988 25.3158L66.5169 21.6783L69.6111 19.4302C69.7109 19.3577 69.7526 19.2293 69.7145 19.112C69.6764 18.9948 69.5671 18.9154 69.4439 18.9154L65.6192 18.9154L64.4373 15.2779Z" fill="black" stroke="#00FFB2" stroke-width="0.569106" stroke-linejoin="round"/>
<path d="M64.4373 29.7901C64.3992 29.6729 64.2899 29.5935 64.1667 29.5935C64.0434 29.5935 63.9341 29.6729 63.896 29.7901L62.7142 33.4276L58.8895 33.4276C58.7662 33.4276 58.6569 33.507 58.6188 33.6242C58.5807 33.7415 58.6225 33.8699 58.7222 33.9424L61.8164 36.1905L60.6346 39.8279C60.5965 39.9452 60.6382 40.0736 60.7379 40.1461C60.8377 40.2185 60.9727 40.2185 61.0724 40.1461L64.1667 37.898L67.2609 40.1461C67.3606 40.2185 67.4957 40.2185 67.5954 40.1461C67.6951 40.0736 67.7369 39.9452 67.6988 39.8279L66.5169 36.1905L69.6111 33.9424C69.7109 33.8699 69.7526 33.7415 69.7145 33.6242C69.6764 33.507 69.5671 33.4276 69.4439 33.4276L65.6192 33.4276L64.4373 29.7901Z" fill="black" stroke="#00FFB2" stroke-width="0.569106" stroke-linejoin="round"/>
<path d="M64.4373 44.3023C64.3992 44.1851 64.2899 44.1057 64.1667 44.1057C64.0434 44.1057 63.9341 44.1851 63.896 44.3023L62.7142 47.9398L58.8895 47.9398C58.7662 47.9398 58.6569 48.0192 58.6188 48.1364C58.5807 48.2537 58.6225 48.3821 58.7222 48.4546L61.8164 50.7027L60.6346 54.3401C60.5965 54.4574 60.6382 54.5858 60.7379 54.6583C60.8377 54.7307 60.9727 54.7307 61.0724 54.6583L64.1667 52.4102L67.2609 54.6583C67.3606 54.7307 67.4957 54.7307 67.5954 54.6583C67.6951 54.5858 67.7369 54.4574 67.6988 54.3401L66.5169 50.7027L69.6111 48.4546C69.7109 48.3821 69.7526 48.2537 69.7145 48.1364C69.6764 48.0192 69.5671 47.9398 69.4439 47.9398L65.6192 47.9398L64.4373 44.3023Z" fill="black" stroke="#00FFB2" stroke-width="0.569106" stroke-linejoin="round"/>
<path d="M64.4373 58.8145C64.3992 58.6973 64.2899 58.6179 64.1667 58.6179C64.0434 58.6179 63.9341 58.6973 63.896 58.8145L62.7142 62.452L58.8895 62.452C58.7662 62.452 58.6569 62.5314 58.6188 62.6486C58.5807 62.7659 58.6225 62.8943 58.7222 62.9668L61.8164 65.2148L60.6346 68.8523C60.5965 68.9696 60.6382 69.098 60.7379 69.1705C60.8377 69.2429 60.9727 69.2429 61.0724 69.1705L64.1667 66.9224L67.2609 69.1705C67.3606 69.2429 67.4957 69.2429 67.5954 69.1705C67.6951 69.098 67.7369 68.9696 67.6988 68.8523L66.5169 65.2148L69.6111 62.9668C69.7109 62.8943 69.7526 62.7659 69.7145 62.6486C69.6764 62.5314 69.5671 62.452 69.4439 62.452L65.6192 62.452L64.4373 58.8145Z" fill="black" stroke="#00FFB2" stroke-width="0.569106" stroke-linejoin="round"/>
<path d="M64.4373 73.3267C64.3992 73.2095 64.2899 73.1301 64.1667 73.1301C64.0434 73.1301 63.9341 73.2095 63.896 73.3267L62.7142 76.9642L58.8895 76.9642C58.7662 76.9642 58.6569 77.0436 58.6188 77.1608C58.5807 77.2781 58.6225 77.4065 58.7222 77.4789L61.8164 79.727L60.6346 83.3645C60.5965 83.4818 60.6382 83.6102 60.7379 83.6827C60.8377 83.7551 60.9727 83.7551 61.0724 83.6827L64.1667 81.4346L67.2609 83.6827C67.3606 83.7551 67.4957 83.7551 67.5954 83.6827C67.6951 83.6102 67.7369 83.4818 67.6988 83.3645L66.5169 79.727L69.6111 77.4789C69.7109 77.4065 69.7526 77.2781 69.7145 77.1608C69.6764 77.0436 69.5671 76.9642 69.4439 76.9642L65.6192 76.9642L64.4373 73.3267Z" fill="black" stroke="#00FFB2" stroke-width="0.569106" stroke-linejoin="round"/>
</svg>
